<mxfile host="app.diagrams.net" modified="2021-03-16T02:17:57.129Z" agent="5.0 (Macintosh; Intel Mac OS X 10_14_3) AppleWebKit/537.36 (KHTML, like Gecko) Chrome/89.0.4389.82 Safari/537.36" etag="PgI4RFVtTgUom1dlL4W4" version="14.4.8" type="github">
  <diagram id="3228e29e-7158-1315-38df-8450db1d8a1d" name="Page-1">
    <mxGraphModel dx="489" dy="547" grid="1" gridSize="10" guides="1" tooltips="1" connect="1" arrows="1" fold="1" page="1" pageScale="1" pageWidth="600" pageHeight="200" background="#ffffff" math="0" shadow="0">
      <root>
        <mxCell id="0" />
        <mxCell id="1" parent="0" />
        <mxCell id="aMB2SkQLuwcF9kNnRCJI-1" value="&lt;font style=&quot;font-size: 30px;&quot;&gt;消息&lt;/font&gt;" style="rounded=1;whiteSpace=wrap;html=1;strokeWidth=5;fontSize=30;strokeColor=#67AB9F;fillColor=#67AB9F;" parent="1" vertex="1">
          <mxGeometry x="192.5" y="70" width="120" height="60" as="geometry" />
        </mxCell>
        <mxCell id="aMB2SkQLuwcF9kNnRCJI-2" value="&lt;font style=&quot;font-size: 30px&quot;&gt;长度&lt;/font&gt;" style="rounded=1;whiteSpace=wrap;html=1;strokeWidth=5;fillColor=#FDD276;strokeColor=#FDD276;fontSize=30;" parent="1" vertex="1">
          <mxGeometry x="317.5" y="70" width="120" height="60" as="geometry" />
        </mxCell>
      </root>
    </mxGraphModel>
  </diagram>
</mxfile>
